<svg height="512" viewBox="0 0 512 512" width="512" xmlns="http://www.w3.org/2000/svg"><g id="_10_label" data-name="10 label"><path d="m8 56h368v400h-368z" fill="#f8d04b"/><path d="m8 56h32v400h-32z" fill="#f6c14a"/><path d="m376 56h128v400h-128z" fill="#ffd95c"/><path d="m232 184-40-32-40 32v-128h80z" fill="#bc8961"/><path d="m408 152h64a0 0 0 0 1 0 0v16a16 16 0 0 1 -16 16h-32a16 16 0 0 1 -16-16v-16a0 0 0 0 1 0 0z" fill="#7965a8"/><path d="m400 376 16-16 16 16" fill="none"/><path d="m448 376 16-16 16 16" fill="none"/><path d="m64 224h256v192h-256z" fill="#d2d0d8"/><path d="m64 224h24v192h-24z" fill="#c3c0cb"/><path d="m232 256h64v64h-64z" fill="#f0eff2"/><path d="m376 136a8 8 0 0 0 -8 8v8a8 8 0 0 0 16 0v-8a8 8 0 0 0 -8-8z"/><path d="m504 48h-496a8 8 0 0 0 -8 8v400a8 8 0 0 0 8 8h496a8 8 0 0 0 8-8v-400a8 8 0 0 0 -8-8zm-280 16v103.35l-27-21.6a8 8 0 0 0 -10 0l-27 21.6v-103.35zm272 384h-112v-272a8 8 0 0 0 -16 0v272h-352v-384h128v120a8.07 8.07 0 0 0 13 6.25l35-28 35 28a8.07 8.07 0 0 0 13-6.25v-120h128v56a8 8 0 0 0 16 0v-56h112z"/><path d="m424 192h32a24 24 0 0 0 24-24v-16a8 8 0 0 0 -8-8h-64a8 8 0 0 0 -8 8v16a24 24 0 0 0 24 24zm-8-32h48v8a8 8 0 0 1 -8 8h-32a8 8 0 0 1 -8-8z"/><path d="m394.34 381.66a8 8 0 0 0 11.31 0l2.34-2.34v28.68a8 8 0 0 0 16 0v-28.69l2.34 2.34a8 8 0 0 0 13.67-5.65 8 8 0 0 0 13.66 5.65l2.34-2.34v28.69a8 8 0 0 0 16 0v-28.69l2.34 2.34a8 8 0 0 0 11.31-11.31l-16-16a8 8 0 0 0 -11.31 0l-16 16a8 8 0 0 0 -2.34 5.66 8 8 0 0 0 -2.34-5.65l-16-16a8 8 0 0 0 -11.31 0l-16 16a8 8 0 0 0 -.01 11.31z"/><path d="m320 216h-256a8 8 0 0 0 -8 8v192a8 8 0 0 0 8 8h256a8 8 0 0 0 8-8v-192a8 8 0 0 0 -8-8zm-8 192h-240v-176h240z"/><path d="m96 392a8 8 0 0 0 8-8v-24a8 8 0 0 0 -16 0v24a8 8 0 0 0 8 8z"/><path d="m120 352a8 8 0 0 0 -8 8v24a8 8 0 0 0 16 0v-24a8 8 0 0 0 -8-8z"/><path d="m160 352a8 8 0 0 0 -8 8v24a8 8 0 0 0 16 0v-24a8 8 0 0 0 -8-8z"/><path d="m184 352a8 8 0 0 0 -8 8v24a8 8 0 0 0 16 0v-24a8 8 0 0 0 -8-8z"/><path d="m208 352a8 8 0 0 0 -8 8v24a8 8 0 0 0 16 0v-24a8 8 0 0 0 -8-8z"/><path d="m240 352a8 8 0 0 0 -8 8v24a8 8 0 0 0 16 0v-24a8 8 0 0 0 -8-8z"/><path d="m264 352a8 8 0 0 0 -8 8v24a8 8 0 0 0 16 0v-24a8 8 0 0 0 -8-8z"/><path d="m288 352a8 8 0 0 0 -8 8v24a8 8 0 0 0 16 0v-24a8 8 0 0 0 -8-8z"/><path d="m232 328h64a8 8 0 0 0 8-8v-64a8 8 0 0 0 -8-8h-64a8 8 0 0 0 -8 8v64a8 8 0 0 0 8 8zm8-64h48v48h-48z"/><path d="m281 280a8 8 0 0 0 -8-8h-1a8 8 0 0 0 -7.5 5.24 8 8 0 0 0 -7.5-5.24h-1a8 8 0 0 0 0 16 8 8 0 0 0 0 16h1a8 8 0 0 0 7.5-5.24 8 8 0 0 0 7.5 5.24h1a8 8 0 0 0 0-16 8 8 0 0 0 8-8zm-16.5 13.24a8 8 0 0 0 -7.5-5.24 8 8 0 0 0 7.5-5.24 8 8 0 0 0 7.5 5.24 8 8 0 0 0 -7.5 5.24z"/><path d="m160 272h48a8 8 0 0 0 0-16h-48a8 8 0 0 0 0 16z"/><path d="m96 296h80a8 8 0 0 0 0-16h-80a8 8 0 0 0 0 16z"/><path d="m96 320h64a8 8 0 0 0 0-16h-64a8 8 0 0 0 0 16z"/><path d="m208 304h-24a8 8 0 0 0 0 16h24a8 8 0 0 0 0-16z"/><path d="m96 272h40a8 8 0 0 0 0-16h-40a8 8 0 0 0 0 16z"/></g></svg>